<?xml version="1.0" encoding="utf-8"?>
<!-- Svg Vector Icons : http://www.onlinewebfonts.com/icon -->
<!DOCTYPE svg PUBLIC "-//W3C//DTD SVG 1.1//EN" "http://www.w3.org/Graphics/SVG/1.1/DTD/svg11.dtd">
<svg version="1.1" xmlns="http://www.w3.org/2000/svg" xmlns:xlink="http://www.w3.org/1999/xlink" x="0px" y="0px" viewBox="0 0 1000 1000" enable-background="new 0 0 1000 1000" xml:space="preserve">
<metadata> Svg Vector Icons : http://www.onlinewebfonts.com/icon </metadata>
<g><g transform="translate(0.000000,512.000000) scale(0.100000,-0.100000)"><path d="M4770,5010.8c-289.4-44.1-509.8-109.2-718.6-214.6c-465.7-231.9-852.8-661.1-1034.8-1144.1c-210.8-557.7-178.2-1157.5,95.8-1705.6c295.1-592.2,843.2-1006.1,1500.5-1132.6c182.1-34.5,592.2-34.5,774.2,0C6310.8,990.2,6995,1731.9,7108,2674.7c47.9,406.3-42.2,870-243.4,1236.1c-314.3,574.9-873.9,971.6-1527.3,1082.8C5184,5020.4,4890.8,5028,4770,5010.8z"/><path d="M4712.5,152.8c-435-17.2-849-84.3-1255.2-203.1c-93.9-26.8-182.1-59.4-195.5-70.9c-28.7-26.8-111.1-308.5-151.4-523.2c-59.4-327.7-55.6-1165.2,7.7-1264.8c7.7-11.5,78.6-23,159.1-28.8c283.6-17.2,530.8-187.8,655.4-452.3c55.6-116.9,61.3-143.7,61.3-320c0-176.3-5.7-203.1-61.3-320c-84.3-178.2-191.6-289.4-366-375.6c-139.9-69-153.3-70.9-348.8-70.9c-189.7,0-210.8,3.8-327.7,61.3c-153.3,76.7-304.7,230-377.5,383.3c-46,99.6-51.7,132.2-51.7,321.9c0,189.7,5.7,222.3,51.7,322c28.7,59.4,95.8,157.1,149.5,212.7l99.7,105.4l-32.6,149.5c-70.9,327.7-57.5,1019.5,26.8,1435.4c19.2,93.9,32.6,172.5,30.7,176.3c-9.6,11.5-279.8-130.3-438.8-230C1663.6-962.6,1219-1568.2,1128.9-2194.8c-13.4-101.6-19.2-477.2-15.3-1147.9l5.7-996.5l47.9-95.8c59.4-122.7,174.4-237.6,297-297l95.8-47.9H5000h3439.9l95.8,47.9c122.6,59.4,237.6,174.4,297,297l47.9,95.8l5.7,996.5c3.8,670.7-1.9,1046.3-15.3,1149.8c-26.8,189.7-93.9,392.9-195.5,594.1c-239.6,477.2-722.5,925.6-1316.6,1226.5l-141.8,70.9l13.4-65.2c36.4-180.1,34.5-475.3-5.8-824c-23-197.4-46-369.9-51.7-385.2c-5.8-17.2,30.7-51.7,103.5-95.8c230-141.8,406.3-387.1,486.8-678.4c55.5-201.2,57.5-697.6,1.9-944.8l-34.5-164.8l42.2-74.7c86.2-155.2,72.8-318.1-38.3-444.6c-226.1-256.8-638.1-134.2-678.4,199.3c-21.1,180.1,78.6,343,251.1,415.9c59.4,24.9,67.1,36.4,88.1,147.5c11.5,67.1,26.8,226.2,32.6,352.6c17.2,364.1-63.2,620.9-247.2,785.7c-107.3,97.7-285.5,176.3-459.9,203.1c-335.4,53.7-607.5-101.6-820.2-461.8c-80.5-134.2-174.4-358.4-212.7-504c-24.9-86.2-23-92,24.9-141.8c67.1-70.9,92-139.9,92-256.8c0-404.4-544.2-527-730.1-166.7c-42.2,84.3-47.9,237.6-11.5,327.7c24.9,55.6,153.3,189.7,199.3,207c11.5,3.8,47.9,95.8,80.5,205.1c78.6,253,243.4,576.8,375.6,737.8c253,306.6,528.9,442.7,895,442.7c184,0,185.9,0,197.4,47.9c23,115,67.1,578.7,67.1,720.6c-1.9,161-61.3,559.6-90.1,584.5c-21.1,21.1-385.2,124.6-590.2,170.6C5749.3,135.5,5251.1,173.8,4712.5,152.8z"/></g></g>
</svg>